<svg width="8" height="16" viewBox="0 0 8 16" fill="none" xmlns="http://www.w3.org/2000/svg">
<path d="M6.90906 3.63634V11.9999C6.90906 13.6072 5.60724 14.909 3.99998 14.909C2.39271 14.909 1.0909 13.6072 1.0909 11.9999V2.90908C1.0909 1.90544 1.90544 1.0909 2.90908 1.0909C3.91271 1.0909 4.72725 1.90544 4.72725 2.90908V10.5454C4.72725 10.9454 4.39998 11.2727 3.99998 11.2727C3.59998 11.2727 3.27271 10.9454 3.27271 10.5454V3.63634H2.18181V10.5454C2.18181 11.549 2.99635 12.3636 3.99998 12.3636C5.00361 12.3636 5.81815 11.549 5.81815 10.5454V2.90908C5.81815 1.30181 4.51634 0 2.90908 0C1.30181 0 0 1.30181 0 2.90908V11.9999C0 14.2108 1.78908 15.9999 3.99998 15.9999C6.21088 15.9999 7.99996 14.2108 7.99996 11.9999V3.63634H6.90906Z" fill="#C2CFE0"/>
</svg>
