<svg t="1588073885514" class="icon" viewBox="0 0 1024 1024" version="1.1" xmlns="http://www.w3.org/2000/svg" p-id="5428" width="32" height="32"><path d="M680.5504 640.887467a30.651733 30.651733 0 0 1 0 43.4176c-6.007467 6.007467-13.858133 9.0112-21.7088 9.0112-7.850667 0-15.701333-3.003733-21.7088-9.0112L512.068267 559.3088l-125.064534 125.064533c-6.007467 6.007467-13.858133 9.0112-21.7088 9.0112-7.850667 0-15.701333-3.003733-21.7088-9.0112a30.651733 30.651733 0 0 1 0-43.4176l125.064534-125.064533-125.064534-125.1328a30.651733 30.651733 0 0 1 0-43.4176 30.651733 30.651733 0 0 1 43.4176 0L512.068267 472.405333l125.064533-125.064533a30.651733 30.651733 0 0 1 43.4176 0 30.651733 30.651733 0 0 1 0 43.4176L555.554133 515.822933l124.996267 125.064534z" p-id="5429" fill="#433938"></path></svg>