<svg xmlns="http://www.w3.org/2000/svg" version="1.0" width="256.000000" height="256.000000" preserveAspectRatio="xMidYMid meet"><rect id="backgroundrect" width="100%" height="100%" x="0" y="0" fill="none" stroke="none"/>
<metadata>
Created by potrace 1.16, written by Peter Selinger 2001-2019
</metadata>

<g class="currentLayer" style=""><title>Layer 1</title><g transform="translate(0,256) scale(0.10000000149011612,-0.10000000149011612) " fill="#eb1a1a" stroke="none" id="svg_1" class="" fill-opacity="1">
<path d="M1163 2546 c-188 -48 -332 -205 -363 -396 -13 -85 -13 -716 0 -799 30 -179 166 -334 339 -385 66 -19 198 -21 266 -2 165 44 297 176 340 341 12 48 15 132 15 456 0 371 -1 401 -20 463 -42 133 -157 257 -287 306 -72 28 -214 36 -290 16z" id="svg_2" fill="#eb1a1a" fill-opacity="1"/>
<path d="M321 1563 c-1 -172 3 -262 13 -315 73 -376 346 -658 734 -758 l42 -11 0 -159 0 -160 -240 0 -240 0 0 -80 0 -80 645 0 645 0 0 80 0 80 -250 0 -250 0 0 158 0 158 74 17 c369 80 659 379 732 755 10 53 14 143 13 315 -1 133 -4 230 -6 215 -4 -28 -5 -28 -78 -28 -49 0 -75 4 -78 13 -3 6 -6 -80 -7 -193 -1 -285 -26 -404 -117 -553 -42 -70 -145 -182 -212 -231 -68 -50 -177 -102 -267 -128 -100 -28 -286 -31 -379 -6 -272 74 -473 253 -563 501 -43 118 -54 213 -50 424 3 173 2 182 -15 177 -10 -3 -45 -3 -77 1 -50 6 -60 10 -63 28 -2 12 -5 -87 -6 -220z" id="svg_3" fill="#eb1a1a" fill-opacity="1"/>
</g></g></svg>