<?xml version="1.0" standalone="no"?>
<!DOCTYPE svg PUBLIC "-//W3C//DTD SVG 20010904//EN"
 "http://www.w3.org/TR/2001/REC-SVG-20010904/DTD/svg10.dtd">
<svg version="1.0" xmlns="http://www.w3.org/2000/svg"
 width="920.000000pt" height="980.000000pt" viewBox="0 0 920.000000 980.000000"
 preserveAspectRatio="xMidYMid meet">
<metadata>
Created by potrace 1.16, written by Peter Selinger 2001-2019
</metadata>
<g transform="translate(0.000000,980.000000) scale(0.100000,-0.100000)"
fill="#000000" stroke="none">
<path d="M4425 9789 c-534 -52 -1003 -383 -1225 -864 -81 -175 -124 -349 -140
-566 -17 -216 -8 -3338 9 -3438 72 -420 271 -761 581 -995 367 -276 825 -374
1297 -276 125 26 229 62 348 120 438 214 732 605 827 1101 22 114 22 118 25
1729 4 1682 2 1814 -37 1994 -170 782 -867 1276 -1685 1195z"/>
<path d="M993 5015 c21 -459 132 -891 337 -1310 123 -251 245 -443 434 -680
99 -124 389 -414 516 -517 489 -393 1032 -652 1613 -768 84 -17 161 -33 172
-35 20 -4 20 -11 17 -855 l-2 -850 518 0 519 0 -1 850 c-1 843 -1 851 19 855
11 3 49 9 85 15 36 6 138 29 227 51 1339 327 2411 1400 2687 2690 44 206 76
468 76 632 l0 67 -437 -2 -438 -3 -7 -150 c-43 -913 -586 -1737 -1428 -2165
-286 -145 -566 -235 -890 -285 -141 -22 -520 -31 -675 -16 -551 53 -1085 267
-1500 600 -116 93 -307 282 -400 396 -336 413 -539 943 -563 1475 l-7 145
-439 3 -439 2 6 -145z"/>
</g>
</svg>
