<svg t="1588074213573" class="icon" viewBox="0 0 1024 1024" version="1.1" xmlns="http://www.w3.org/2000/svg" p-id="6032" width="32" height="32"><path d="M801.655467 771.072c10.6496 10.6496 10.581333 27.921067-0.068267 38.638933-5.3248 5.3248-12.424533 7.9872-19.387733 7.9872-6.9632 0-14.199467-2.6624-19.524267-7.9872l-148.138667-147.729066v70.587733c0 15.086933-12.219733 27.306667-27.306666 27.306667s-27.306667-12.219733-27.306667-27.306667v-136.533333c0-7.236267 3.2768-14.199467 8.3968-19.319467s12.4928-7.9872 19.729067-7.9872h136.465066c15.086933 0 27.306667 12.219733 27.306667 27.306667s-12.219733 27.306667-27.306667 27.306666H653.9264l147.729067 147.729067zM586.888533 469.6064h136.465067c15.086933 0 27.306667-12.219733 27.306667-27.306667s-12.219733-27.306667-27.306667-27.306666H652.765867l151.825066-151.620267a27.108693 27.108693 0 0 0 0-38.434133 27.108693 27.108693 0 0 0-38.434133 0.068266L614.536533 376.900267V306.312533c0-15.086933-12.424533-27.921067-27.4432-27.921066h-0.068266c-15.086933 0-27.374933 12.4928-27.374934 27.579733v136.669867c0 7.236267 2.8672 13.994667 7.9872 19.114666 5.051733 5.188267 12.014933 7.850667 19.2512 7.850667zM436.6336 280.234667c-15.086933 0-26.897067 12.219733-26.897067 27.306666v70.587734L258.798933 227.5328c-10.6496-10.6496-28.194133-10.6496-38.843733 0-10.6496 10.6496-10.786133 27.0336-0.136533 37.751467L370.2784 415.061333H300.509867v0.887467c-13.653333 0-27.716267 12.629333-27.716267 27.716267 0 15.086933 12.4928 27.511467 27.511467 27.511466l136.669866 0.136534v0.068266c6.826667 0 13.789867-2.8672 18.909867-7.9872s7.7824-12.0832 7.7824-19.319466l0.068267-136.533334c0.136533-15.086933-12.014933-27.306667-27.101867-27.306666z m-1.6384 284.945066H298.530133c-15.086933 0-27.306667 12.219733-27.306666 27.306667s12.219733 27.306667 27.306666 27.306667h70.587734l-148.8896 150.1184c-10.6496 10.6496-10.6496 28.535467 0 39.185066 5.3248 5.3248 12.288 8.260267 19.319466 8.260267 6.9632 0 15.018667-2.525867 20.343467-7.850667l149.9136-148.821333v70.587733c0 15.086933 11.195733 24.9856 26.282667 24.9856h-0.546134c15.086933 0 27.0336-11.0592 27.0336-26.146133l-0.136533-135.918933c0-7.236267-2.935467-15.086933-8.055467-20.206934-5.12-5.051733-12.151467-8.8064-19.387733-8.8064z" p-id="6033" fill="#433938"></path></svg>