<svg t="1588074195343" class="icon" viewBox="0 0 1024 1024" version="1.1" xmlns="http://www.w3.org/2000/svg" p-id="5726" width="32" height="32"><path d="M815.786667 241.732267v136.533333c0 15.086933-12.219733 27.306667-27.306667 27.306667s-27.306667-12.219733-27.306667-27.306667V307.677867L602.5216 466.466133c-5.3248 5.3248-12.356267 7.9872-19.319467 7.9872a27.293013 27.293013 0 0 1-19.319466-46.626133l158.72-158.856533H652.014933c-15.086933 0-27.306667-12.219733-27.306666-27.306667s12.219733-27.306667 27.306666-27.306667h136.465067c7.236267 0 14.199467 2.8672 19.319467 7.9872 5.12 5.188267 7.9872 12.151467 7.9872 19.387734z m-27.306667 382.225066c-15.086933 0-27.306667 12.219733-27.306667 27.306667v70.587733L605.184 567.227733c-10.6496-10.6496-28.672-10.6496-39.3216 0-10.6496 10.6496-11.0592 27.921067-0.4096 38.638934l154.4192 154.692266H649.216h-0.068267c-15.086933 0-27.306667 12.219733-27.306666 27.306667s12.219733 27.306667 27.306666 27.306667h136.3968c7.236267 0 15.633067-2.8672 20.753067-7.9872s9.489067-12.0832 9.489067-19.319467v-136.533333c0-15.1552-12.219733-27.374933-27.306667-27.374934z m-362.837333-57.9584L269.653333 721.851733V651.264c0-15.086933-12.014933-27.306667-27.0336-27.306667h0.136534a27.2384 27.2384 0 0 0-27.2384 27.306667v136.533333c0 7.236267 2.8672 14.199467 7.9872 19.319467s12.0832 7.9872 19.319466 7.9872h136.465067c15.086933 0 27.306667-12.219733 27.306667-27.306667s-12.219733-27.306667-27.306667-27.306666H308.701867l155.784533-155.921067c10.6496-10.6496 10.513067-27.989333-0.136533-38.638933a27.50464 27.50464 0 0 0-38.7072 0.068266z m-117.418667-294.5024h70.519467c15.086933 0 27.306667-12.219733 27.306666-27.306666s-12.219733-27.306667-27.306666-27.306667H242.2784c-7.236267 0-14.199467 2.8672-19.319467 7.9872s-7.9872 12.0832-7.9872 19.319467v136.533333c0 15.086933 12.219733 27.306667 27.306667 27.306667s27.306667-12.219733 27.306667-27.306667V310.135467L427.076267 467.626667c5.3248 5.3248 12.356267 7.9872 19.319466 7.9872a27.293013 27.293013 0 0 0 19.319467-46.626134L308.224 271.496533z" p-id="5727" fill="#433938"></path></svg>